<svg width="29" height="30" fill="none" xmlns="http://www.w3.org/2000/svg"><path fill-rule="evenodd" clip-rule="evenodd" d="M9.4 0h10.653c4.902 0 8.877 4.198 8.877 9.375v11.25c0 5.177-3.975 9.375-8.877 9.375H9.4C4.5 30 .523 25.802.523 20.625V9.375C.523 4.198 4.5 0 9.4 0zm10.653 27.188c3.426 0 6.213-2.944 6.213-6.563V9.375c0-3.619-2.787-6.563-6.213-6.563H9.4c-3.426 0-6.214 2.944-6.214 6.563v11.25c0 3.619 2.788 6.563 6.214 6.563h10.653z" fill="#fff"/><path fill-rule="evenodd" clip-rule="evenodd" d="M7.625 15c0-4.142 3.18-7.5 7.101-7.5 3.922 0 7.102 3.358 7.102 7.5 0 4.142-3.18 7.5-7.101 7.5-3.922 0-7.102-3.358-7.102-7.5zm2.663 0c0 2.584 1.992 4.688 4.438 4.688 2.447 0 4.439-2.104 4.439-4.688 0-2.586-1.992-4.688-4.439-4.688-2.446 0-4.438 2.102-4.438 4.688z" fill="#fff"/><ellipse cx="22.36" cy="6.937" rx=".946" ry=".999" fill="#fff"/></svg>