<svg width="29" height="26" fill="none" xmlns="http://www.w3.org/2000/svg"><path d="M28.875 3.613c-1.056.49-2.182.813-3.355.97a6.068 6.068 0 002.561-3.398 11.27 11.27 0 01-3.692 1.488C23.319 1.471 21.797.727 20.135.727c-3.224 0-5.82 2.764-5.82 6.152 0 .487.04.956.135 1.402-4.842-.249-9.126-2.7-12.003-6.433a6.46 6.46 0 00-.798 3.109c0 2.13 1.039 4.018 2.587 5.111a5.518 5.518 0 01-2.631-.757v.067c0 2.99 2.019 5.472 4.666 6.043a5.52 5.52 0 01-1.527.203c-.373 0-.75-.023-1.103-.105.755 2.435 2.896 4.226 5.442 4.284-1.981 1.637-4.497 2.623-7.22 2.623-.478 0-.936-.022-1.394-.084a15.769 15.769 0 008.934 2.76c10.716 0 16.575-9.375 16.575-17.501 0-.272-.01-.535-.022-.795 1.156-.866 2.127-1.948 2.919-3.193z" fill="#fff"/></svg>